<?xml version="1.0" encoding="utf-8"?>
<!-- Generator: Adobe Illustrator 27.7.0, SVG Export Plug-In . SVG Version: 6.00 Build 0)  -->
<svg version="1.1" id="Layer_1" xmlns="http://www.w3.org/2000/svg" xmlns:xlink="http://www.w3.org/1999/xlink" x="0px" y="0px"
	 viewBox="0 0 320 132" style="enable-background:new 0 0 320 132;" xml:space="preserve">
<style type="text/css">
	.st0{fill:none;stroke:#473730;stroke-width:7;stroke-miterlimit:10;}
	.st1{fill:#F16322;}
</style>
<g>
	<rect x="4" y="24.2" class="st1" width="14.58" height="87.96"/>
	<polygon class="st1" points="44.66,24.23 62.77,24.23 32.89,68.2 63,112.17 45.08,112.17 14.57,68.2 	"/>
	<path class="st1" d="M233.27,39.18v72.98H218.7V39.32h-24.42l14.76-15.12h46.12v14.98H233.27z"/>
	<rect x="194.32" y="24.2" class="st1" width="16.69" height="0.63"/>
	<polygon class="st1" points="143,112.13 121.34,24.2 97.03,77.69 72.73,24.2 54.22,94.63 65.37,110.94 77.4,68.24 97.03,112.17 
		116.45,68.85 125.76,104.12 125.76,104.12 127.88,112.13 	"/>
	<path class="st1" d="M179.53,24.2v59.22c0,7.73-6.27,13.99-13.99,13.99c-7.73,0-13.99-6.27-13.99-13.99V24.2l-14.75,13.58v37.15
		l6.61,26.84c5.27,6.36,13.23,10.41,22.14,10.41c15.88,0,28.75-12.87,28.75-28.75V24.2H179.53z"/>
	<path class="st1" d="M294.11,39.18v72.98h-14.57V39.32h-24.42l14.76-15.12H316v14.98H294.11z"/>
	<rect x="255.16" y="24.2" class="st1" width="16.69" height="0.63"/>
</g>
</svg>
