<?xml version="1.0" encoding="utf-8"?>
<!-- Generator: Adobe Illustrator 27.7.0, SVG Export Plug-In . SVG Version: 6.00 Build 0)  -->
<svg version="1.1" id="Layer_1" xmlns="http://www.w3.org/2000/svg" xmlns:xlink="http://www.w3.org/1999/xlink" x="0px" y="0px"
	 viewBox="0 0 320 132" style="enable-background:new 0 0 320 132;" xml:space="preserve">
<polygon points="83.84,68.99 89.12,64.59 103.27,82.79 103.64,83.18 111.58,83.18 110.07,81.54 93.73,61.07 109.61,46.91 
	111.67,45.17 103.72,45.17 103.36,45.47 83.84,62.72 83.84,45.17 77.42,45.17 77.42,83.18 83.84,83.18 "/>
<polygon points="147.45,45.84 135.05,75.2 122.46,45.83 122.17,45.17 114.09,45.17 114.09,83.18 120.44,83.18 120.44,56.2 
	131.96,82.51 132.25,83.18 137.65,83.18 137.94,82.51 149.4,56.22 149.4,83.18 155.76,83.18 155.76,45.17 147.74,45.17 "/>
<g>
	<path d="M150.56,5.77c0,1.45-1.17,2.63-2.61,2.63c-1.44,0-2.61-1.18-2.61-2.63c0-1.45,1.17-2.63,2.61-2.63
		C149.39,3.14,150.56,4.32,150.56,5.77"/>
	<path d="M150.56,13.65c0,1.45-1.17,2.63-2.61,2.63c-1.44,0-2.61-1.18-2.61-2.63c0-1.45,1.17-2.63,2.61-2.63
		C149.39,11.02,150.56,12.2,150.56,13.65"/>
	<path d="M150.56,29.41c0,1.45-1.17,2.63-2.61,2.63c-1.44,0-2.61-1.18-2.61-2.63c0-1.45,1.17-2.63,2.61-2.63
		C149.39,26.78,150.56,27.96,150.56,29.41"/>
	<path d="M150.56,37.29c0,1.45-1.17,2.62-2.61,2.62c-1.44,0-2.61-1.17-2.61-2.62c0-1.45,1.17-2.63,2.61-2.63
		C149.39,34.67,150.56,35.84,150.56,37.29"/>
	<path d="M150.58,21.53c0,1.45-1.18,2.62-2.63,2.62c-1.45,0-2.62-1.17-2.62-2.62c0-1.45,1.17-2.63,2.62-2.63
		C149.4,18.9,150.58,20.08,150.58,21.53"/>
	<path d="M142.75,21.53c0,1.45-1.18,2.62-2.63,2.62c-1.45,0-2.62-1.17-2.62-2.62c0-1.45,1.17-2.63,2.62-2.63
		C141.56,18.9,142.75,20.08,142.75,21.53"/>
	<path d="M134.91,21.53c0,1.45-1.18,2.62-2.63,2.62c-1.45,0-2.63-1.17-2.63-2.62c0-1.45,1.17-2.63,2.63-2.63
		C133.73,18.9,134.91,20.08,134.91,21.53"/>
	<path d="M166.25,21.53c0,1.45-1.17,2.62-2.62,2.62c-1.45,0-2.63-1.17-2.63-2.62c0-1.45,1.18-2.63,2.63-2.63
		C165.08,18.9,166.25,20.08,166.25,21.53"/>
	<path d="M166.25,29.41c0,1.45-1.17,2.63-2.62,2.63c-1.45,0-2.63-1.18-2.63-2.63c0-1.45,1.18-2.63,2.63-2.63
		C165.08,26.79,166.25,27.96,166.25,29.41"/>
	<path d="M158.41,21.53c0,1.45-1.17,2.62-2.62,2.62c-1.45,0-2.63-1.17-2.63-2.62c0-1.45,1.18-2.63,2.63-2.63
		C157.24,18.9,158.41,20.08,158.41,21.53"/>
	<path d="M174.09,37.29c0,1.45-1.17,2.62-2.62,2.62c-1.45,0-2.63-1.17-2.63-2.62c0-1.45,1.18-2.63,2.63-2.63
		C172.91,34.67,174.09,35.84,174.09,37.29"/>
	<path d="M166.25,37.29c0,1.45-1.17,2.62-2.62,2.62c-1.45,0-2.63-1.17-2.63-2.62c0-1.45,1.18-2.63,2.63-2.63
		C165.08,34.67,166.25,35.84,166.25,37.29"/>
	<path d="M158.41,37.29c0,1.45-1.17,2.62-2.62,2.62c-1.45,0-2.63-1.17-2.63-2.62c0-1.45,1.18-2.63,2.63-2.63
		C157.24,34.67,158.41,35.84,158.41,37.29"/>
	<path d="M181.93,37.29c0,1.45-1.18,2.62-2.63,2.62c-1.45,0-2.62-1.17-2.62-2.62c0-1.45,1.17-2.63,2.62-2.63
		C180.75,34.67,181.93,35.84,181.93,37.29"/>
	<path d="M166.25,45.17c0,1.45-1.17,2.63-2.62,2.63c-1.45,0-2.63-1.17-2.63-2.63c0-1.45,1.18-2.63,2.63-2.63
		C165.08,42.55,166.25,43.72,166.25,45.17"/>
	<path d="M166.25,53.05c0,1.45-1.17,2.62-2.62,2.62c-1.45,0-2.63-1.17-2.63-2.62c0-1.45,1.18-2.63,2.63-2.63
		C165.08,50.43,166.25,51.6,166.25,53.05"/>
</g>
<rect x="77.42" y="85.59" width="6.35" height="38.38"/>
<polygon points="102.1,85.59 95.75,85.59 86.69,85.59 86.69,90.47 95.75,90.47 95.75,123.98 102.1,123.98 102.1,90.47 111.16,90.47 
	111.16,85.59 "/>
<polygon points="129.5,119.1 120.44,119.1 120.44,85.59 114.09,85.59 114.09,123.98 120.44,123.98 129.5,123.98 138.55,123.98 
	138.55,119.1 "/>
<g>
	<path d="M186.98,83.07c-1.13,0-2.18,0.08-3.13,0.23s-1.77,0.41-2.47,0.78c-0.69,0.37-1.23,0.86-1.62,1.47s-0.58,1.39-0.58,2.31
		c0,0.44,0.07,0.84,0.2,1.21c0.13,0.37,0.33,0.68,0.59,0.94s0.59,0.47,0.97,0.62c0.39,0.15,0.84,0.23,1.36,0.23
		c0.23,0,0.54-0.05,0.92-0.14c0.38-0.09,0.81-0.25,1.29-0.46v4.38c-0.48,0.27-0.97,0.47-1.47,0.59c-0.5,0.12-0.95,0.18-1.34,0.18
		c-1.35,0-2.52-0.17-3.51-0.5s-1.81-0.82-2.45-1.46s-1.12-1.44-1.44-2.39s-0.47-2.04-0.47-3.27c0-1.51,0.34-2.83,1.03-3.96
		s1.63-2.06,2.81-2.8c1.19-0.75,2.58-1.31,4.17-1.68s3.3-0.56,5.12-0.56v-2.29c0-0.51-0.08-0.96-0.24-1.35s-0.39-0.71-0.67-0.97
		s-0.63-0.45-1.04-0.58c-0.41-0.13-0.85-0.2-1.34-0.2c-0.66,0-1.23,0.1-1.7,0.3c-0.47,0.2-0.86,0.49-1.17,0.86s-0.55,0.82-0.72,1.36
		s-0.27,1.12-0.31,1.78h-5.35c0.06-1.51,0.35-2.81,0.86-3.9c0.52-1.09,1.21-1.98,2.07-2.69s1.86-1.22,3-1.55s2.36-0.5,3.67-0.5
		c0.76,0,1.46,0.05,2.09,0.15s1.14,0.23,1.51,0.4c0.2-0.12,0.36-0.26,0.5-0.44s0.25-0.36,0.34-0.55c0.09-0.19,0.15-0.38,0.19-0.56
		s0.06-0.35,0.06-0.48h5.52c-0.02,0.44-0.09,0.89-0.21,1.36c-0.12,0.46-0.3,0.92-0.54,1.36c-0.24,0.45-0.54,0.87-0.9,1.26
		c-0.36,0.4-0.79,0.74-1.29,1.02c0.19,0.31,0.34,0.65,0.47,1.03s0.23,0.75,0.31,1.13c0.08,0.38,0.14,0.75,0.18,1.1
		s0.06,0.66,0.06,0.94v18.47h-5.35V83.07z"/>
	<path d="M196.46,77.3c0.09-1.18,0.34-2.28,0.76-3.29c0.42-1.01,1-1.88,1.74-2.62c0.74-0.74,1.63-1.32,2.67-1.74
		s2.24-0.63,3.59-0.63c0.69,0,1.39,0.07,2.08,0.2c0.69,0.13,1.36,0.35,1.99,0.65s1.22,0.7,1.77,1.19c0.54,0.49,1,1.09,1.37,1.79
		c0.37,0.71,0.64,1.54,0.82,2.49c0.18,0.95,0.22,2.04,0.13,3.27c-0.04,0.52-0.1,1.04-0.18,1.58c-0.08,0.54-0.2,1.13-0.34,1.77
		s-0.33,1.37-0.56,2.17c-0.23,0.8-0.51,1.73-0.84,2.79s-0.73,2.27-1.18,3.63c-0.46,1.36-0.97,2.92-1.56,4.68H203l-3.37-11.4h-2.58
		v-4.2h6.61l2.15,8.33c0.33-1.06,0.61-1.99,0.83-2.78s0.42-1.51,0.58-2.18c0.16-0.67,0.3-1.32,0.42-1.94s0.23-1.3,0.34-2.04
		c0.09-0.7,0.1-1.39,0.04-2.05s-0.2-1.25-0.42-1.77c-0.22-0.51-0.54-0.92-0.94-1.24c-0.41-0.31-0.91-0.47-1.5-0.47
		c-1,0-1.78,0.32-2.34,0.96s-0.92,1.58-1.07,2.82H196.46z"/>
	<path d="M229.17,76.66c0-0.56-0.08-1.04-0.24-1.44c-0.16-0.41-0.39-0.74-0.67-1c-0.29-0.26-0.64-0.46-1.04-0.59
		s-0.85-0.19-1.34-0.19c-0.66,0-1.23,0.1-1.7,0.3c-0.47,0.2-0.86,0.49-1.17,0.86s-0.55,0.82-0.72,1.36s-0.27,1.12-0.31,1.78h-5.35
		c0.06-1.51,0.34-2.81,0.84-3.9c0.5-1.09,1.17-1.98,2.01-2.69s1.82-1.22,2.94-1.55s2.34-0.5,3.65-0.5c1.2,0,2.25,0.12,3.13,0.35
		s1.65,0.55,2.27,0.95c0.62,0.39,1.14,0.85,1.53,1.37c0.4,0.52,0.7,1.06,0.92,1.63c0.22,0.57,0.37,1.15,0.45,1.74
		s0.12,1.15,0.12,1.68v18.44h-5.35V83.07c-1.13,0-2.17,0.08-3.13,0.23c-0.95,0.15-1.77,0.41-2.47,0.78
		c-0.69,0.37-1.23,0.86-1.62,1.47c-0.39,0.62-0.58,1.39-0.58,2.31c0,0.44,0.07,0.84,0.2,1.21c0.13,0.37,0.33,0.68,0.59,0.94
		s0.59,0.47,0.97,0.62c0.39,0.15,0.84,0.23,1.36,0.23c0.23,0,0.54-0.05,0.92-0.14c0.38-0.09,0.81-0.25,1.29-0.46v4.38
		c-0.48,0.27-0.97,0.47-1.47,0.59c-0.5,0.12-0.95,0.18-1.34,0.18c-1.35,0-2.52-0.17-3.51-0.5s-1.81-0.82-2.45-1.46
		s-1.12-1.44-1.44-2.39s-0.47-2.04-0.47-3.27c0-1.51,0.34-2.83,1.03-3.96c0.69-1.12,1.62-2.06,2.81-2.8
		c1.19-0.75,2.58-1.31,4.17-1.68c1.6-0.37,3.3-0.56,5.12-0.56V76.66z"/>
	<path d="M239.67,95.25V89.9h5.16v5.35H239.67z"/>
</g>
</svg>
